<svg width="120" height="120" viewBox="0 0 120 120" fill="none" xmlns="http://www.w3.org/2000/svg">
<g clip-path="url(#clip0_879_77)">
<path d="M96.2399 118.161H23.7607C23.8735 115.912 24.0019 113.66 24.1461 111.411C24.5891 104.486 30.0204 98.9182 36.9328 98.2813C52.2792 96.8633 67.7238 96.8633 83.0702 98.2813C89.9801 98.9184 95.4139 104.486 95.8544 111.411C95.9987 113.66 96.1272 115.912 96.2399 118.161Z" fill="#90D8F9"/>
<path d="M52.1923 97.3398C51.6907 97.3844 51.1891 97.4289 50.6875 97.4758C43.1847 98.1672 37.2874 104.212 36.8046 111.731C36.6686 113.874 36.5444 116.018 36.4342 118.161H23.7607C23.8732 115.913 24.0022 113.66 24.1451 111.41C24.5881 104.486 30.019 98.9173 36.9335 98.2821C42.0198 97.8133 47.106 97.4992 52.1923 97.3398Z" fill="#75CEF9"/>
<path d="M68.2618 85.3701V96.438C68.2618 101.002 64.5632 104.7 59.9996 104.7C55.436 104.7 51.7373 101.002 51.7373 96.438V85.3701H68.2618Z" fill="#407093"/>
<path d="M62.3388 104.363C61.5795 104.588 60.7915 104.701 59.9996 104.7C55.436 104.7 51.7373 101.002 51.7373 96.438V85.3701H56.4157V96.438C56.4157 100.188 58.9143 103.355 62.3388 104.363Z" fill="#365E7D"/>
<path d="M68.2618 85.3701V96.1521C62.7537 96.2458 57.2455 96.2458 51.7373 96.1521V85.3701H68.2618Z" fill="#365E7D"/>
<path d="M40.5391 15.6191C44.3446 15.6191 47.4297 12.5341 47.4297 8.7285C47.4297 4.92292 44.3446 1.83789 40.5391 1.83789C36.7335 1.83789 33.6484 4.92292 33.6484 8.7285C33.6484 12.5341 36.7335 15.6191 40.5391 15.6191Z" fill="#DD636E"/>
<path d="M60 15.6191C63.8056 15.6191 66.8906 12.5341 66.8906 8.7285C66.8906 4.92292 63.8056 1.83789 60 1.83789C56.1944 1.83789 53.1094 4.92292 53.1094 8.7285C53.1094 12.5341 56.1944 15.6191 60 15.6191Z" fill="#DD636E"/>
<path d="M79.4619 15.6191C83.2675 15.6191 86.3525 12.5341 86.3525 8.7285C86.3525 4.92292 83.2675 1.83789 79.4619 1.83789C75.6563 1.83789 72.5713 4.92292 72.5713 8.7285C72.5713 12.5341 75.6563 15.6191 79.4619 15.6191Z" fill="#DD636E"/>
<path d="M42.6434 15.2919C41.98 15.5052 41.2722 15.6201 40.5385 15.6201C36.732 15.6201 33.6475 12.5355 33.6475 8.72897C33.6475 4.92481 36.732 1.83789 40.5385 1.83789C41.2722 1.83789 41.98 1.95274 42.6434 2.16604C39.8658 3.05438 37.8571 5.65846 37.8571 8.72897C37.8571 11.8018 39.8658 14.4036 42.6434 15.2919ZM62.1048 15.2919C61.4415 15.5052 60.7336 15.6201 60 15.6201C56.1935 15.6201 53.1089 12.5355 53.1089 8.72897C53.1089 4.92481 56.1935 1.83789 60 1.83789C60.7336 1.83789 61.4415 1.95274 62.1048 2.16604C59.3273 3.05438 57.3186 5.65846 57.3186 8.72897C57.3186 11.8018 59.3273 14.4036 62.1048 15.2919ZM81.5663 15.2919C80.9029 15.5052 80.1951 15.6201 79.4614 15.6201C75.6549 15.6201 72.5704 12.5355 72.5704 8.72897C72.5704 4.92481 75.6549 1.83789 79.4614 1.83789C80.1951 1.83789 80.9029 1.95274 81.5663 2.16604C78.7887 3.05438 76.78 5.65846 76.78 8.72897C76.78 11.8018 78.7887 14.4036 81.5663 15.2919Z" fill="#DA4A54"/>
<path d="M109.709 29.2339C76.5743 28.4455 43.4258 28.4455 10.2913 29.2339C6.71689 29.319 3.59293 31.7485 2.7053 35.2121C1.43678 40.1619 1.43678 45.1118 2.7053 50.0617C3.59293 53.5252 6.71666 55.9547 10.2913 56.0398C43.4258 56.8283 76.5743 56.8283 109.709 56.0398C113.283 55.9547 116.407 53.5252 117.295 50.0617C118.563 45.1118 118.563 40.1619 117.295 35.2121C116.407 31.7485 113.283 29.319 109.709 29.2339Z" fill="#407093"/>
<path d="M117.912 47.0449C117.758 48.0604 117.552 49.0673 117.295 50.0618C116.407 53.5268 113.283 55.9567 109.709 56.0394C76.5743 56.8291 43.4251 56.8291 10.2902 56.0394C6.71593 55.9567 3.59244 53.5268 2.7041 50.0618C2.44764 49.0673 2.24197 48.0603 2.08789 47.0449C3.59502 47.8079 5.89158 48.2853 8.39886 48.3092C42.7985 48.6428 77.2006 48.6428 111.6 48.3092C114.108 48.2853 116.404 47.8079 117.912 47.0449Z" fill="#365E7D"/>
<path d="M92.8033 9.26927C70.9594 7.79566 49.041 7.79566 27.1971 9.26927C19.3682 9.79689 13.1056 15.9742 12.4448 23.7928C10.9637 41.2916 10.9637 58.8842 12.4448 76.383C13.1053 84.2018 19.3682 90.3792 27.1971 90.9066C49.041 92.3802 70.9594 92.3802 92.8033 90.9066C100.632 90.379 106.895 84.2016 107.556 76.383C109.037 58.8842 109.037 41.2916 107.556 23.7928C106.895 15.9742 100.632 9.79689 92.8033 9.26927Z" fill="#90D8F9"/>
<path d="M28.9208 91.0186C28.3446 90.9839 27.7711 90.9438 27.1975 90.9065C19.3689 90.3784 13.1057 84.2006 12.4443 76.3825C10.9639 58.8837 10.9639 41.2911 12.4443 23.7923C13.1057 15.9742 19.3689 9.79661 27.1975 9.26829C27.7711 9.23102 28.3446 9.19094 28.9208 9.15625C23.6714 11.589 19.9183 16.7022 19.4062 22.7626C17.8672 40.9475 17.8672 59.2299 19.4062 77.4148C19.9183 83.4752 23.6714 88.5858 28.9208 91.0186Z" fill="#75CEF9"/>
<path d="M90.0914 17.5764C70.0526 16.2467 49.9477 16.2467 29.9088 17.5764C25.9197 17.8408 22.6861 20.9164 22.2424 24.8896C20.7226 38.4953 20.7226 52.1009 22.2424 65.7064C22.6861 69.6793 25.92 72.755 29.9088 73.0196C49.9477 74.3493 70.0526 74.3493 90.0914 73.0196C94.0803 72.7552 97.3141 69.6795 97.7579 65.7066C99.2776 52.1009 99.2776 38.4953 97.7579 24.8898C97.3141 20.9164 94.0805 17.8408 90.0914 17.5764Z" fill="#DAEEFA"/>
<path d="M32.4483 73.179C31.6028 73.1283 30.7546 73.0749 29.9089 73.0189C25.9212 72.7547 22.6857 69.6793 22.2429 65.7075C20.7224 52.1012 20.7224 38.4948 22.2429 24.8884C22.6857 20.9167 25.9212 17.8412 29.9089 17.5771C30.7571 17.5211 31.6054 17.4676 32.4537 17.417C30.0397 18.7214 28.3192 21.1459 27.9991 24.0188C26.4146 38.2039 26.4146 52.3918 27.9991 66.5771C28.3192 69.4501 30.0371 71.872 32.4483 73.179Z" fill="#C0E3F8"/>
<path d="M39.5207 38.891C43.5378 38.891 46.7943 35.6345 46.7943 31.6174C46.7943 27.6003 43.5378 24.3438 39.5207 24.3438C35.5036 24.3438 32.2471 27.6003 32.2471 31.6174C32.2471 35.6345 35.5036 38.891 39.5207 38.891Z" fill="#90D8F9"/>
<path d="M80.4797 38.891C84.4968 38.891 87.7533 35.6345 87.7533 31.6174C87.7533 27.6003 84.4968 24.3438 80.4797 24.3438C76.4626 24.3438 73.2061 27.6003 73.2061 31.6174C73.2061 35.6345 76.4626 38.891 80.4797 38.891Z" fill="#90D8F9"/>
<path d="M42.6046 38.2063C41.6399 38.6594 40.5869 38.8935 39.5211 38.8919C35.5039 38.8919 32.2471 35.635 32.2471 31.6178C32.2471 27.6006 35.5039 24.3438 39.5211 24.3438C40.6228 24.3438 41.6684 24.5892 42.6046 25.0293C40.1292 26.1896 38.4141 28.7022 38.4141 31.6178C38.4141 34.5334 40.1292 37.0461 42.6046 38.2063ZM83.565 38.2063C82.6003 38.6593 81.5474 38.8934 80.4816 38.8919C76.4644 38.8919 73.2075 35.635 73.2075 31.6178C73.2075 27.6006 76.4644 24.3438 80.4816 24.3438C81.5832 24.3438 82.6289 24.5892 83.565 25.0293C81.087 26.187 79.3718 28.7022 79.3718 31.6178C79.3718 34.5334 81.087 37.0487 83.565 38.2063Z" fill="#75CEF9"/>
<path d="M118.998 34.7746C117.923 30.5818 114.12 27.5807 109.75 27.4764L109.605 27.4731C109.512 26.1959 109.415 24.9197 109.307 23.645C108.952 19.4424 107.105 15.5054 104.101 12.5448C101.096 9.58481 97.1296 7.80039 92.9213 7.51545C91.2743 7.40435 89.6249 7.30474 87.9745 7.21051C87.2547 3.16423 83.7128 0.0812891 79.4617 0.0812891C75.4628 0.0812891 72.0653 2.80842 71.0942 6.53992C70.1798 6.51929 69.2652 6.49797 68.3506 6.4825C67.3535 2.7878 63.9535 0.0810547 60.0005 0.0810547C56.0475 0.0810547 52.6474 2.78756 51.6503 6.4825C50.7355 6.49797 49.8211 6.51929 48.9068 6.53992C47.9355 2.80842 44.5382 0.0812891 40.5393 0.0812891C36.2881 0.0812891 32.7462 3.16423 32.0264 7.21051C30.3761 7.30474 28.7267 7.40459 27.0796 7.51545C22.8714 7.80039 18.9048 9.58481 15.8999 12.5448C12.896 15.5054 11.0494 19.4424 10.6936 23.645C10.586 24.9197 10.4885 26.1961 10.3964 27.4733L10.2494 27.4766C5.88063 27.5809 2.07835 30.5821 1.00226 34.7758C-0.332825 39.9931 -0.332825 45.2823 1.0025 50.4975C2.03053 54.5072 5.55085 57.4254 9.67893 57.7662C9.82958 64.03 10.168 70.2878 10.6938 76.5313C11.0497 80.7339 12.8962 84.6709 15.9001 87.6316C18.905 90.5915 22.8716 92.3759 27.0799 92.6609C34.7046 93.1726 42.3404 93.5054 49.9808 93.6589V95.659C45.5714 95.8356 41.1674 96.1261 36.7731 96.53C33.0095 96.8779 29.493 98.5554 26.8544 101.262C24.2174 103.968 22.6347 107.528 22.3918 111.299C22.2481 113.557 22.1195 115.815 22.006 118.073C21.994 118.311 22.0304 118.549 22.1133 118.773C22.1961 118.996 22.3235 119.201 22.4877 119.373C22.652 119.546 22.8496 119.683 23.0686 119.777C23.2877 119.871 23.5235 119.919 23.7618 119.919H96.2403C96.4785 119.919 96.7143 119.871 96.9332 119.777C97.1522 119.683 97.3497 119.545 97.5139 119.373C97.6782 119.2 97.8056 118.996 97.8885 118.773C97.9713 118.549 98.008 118.311 97.9961 118.073C97.8828 115.815 97.7542 113.557 97.6103 111.301C97.5331 110.065 97.3097 108.843 96.9449 107.66C96.8768 107.439 96.7659 107.234 96.6185 107.057C96.4711 106.879 96.2902 106.732 96.086 106.624C95.8819 106.516 95.6585 106.45 95.4286 106.428C95.1987 106.407 94.9669 106.431 94.7463 106.499C94.5257 106.567 94.3207 106.678 94.143 106.826C93.9653 106.973 93.8184 107.154 93.7106 107.358C93.6028 107.562 93.5363 107.786 93.5148 108.016C93.4934 108.245 93.5174 108.477 93.5856 108.698C93.8684 109.616 94.0415 110.564 94.1012 111.523C94.2058 113.167 94.3019 114.802 94.3886 116.404H25.6137C25.7002 114.802 25.7963 113.167 25.9009 111.523C26.2909 105.426 30.9993 100.593 37.0956 100.031C41.509 99.626 45.9323 99.3367 50.3609 99.1638C51.5512 103.368 55.421 106.459 60.0014 106.459C64.5819 106.459 68.4514 103.368 69.6419 99.1638C74.0231 99.3337 78.4791 99.6244 82.9115 100.031C85.7213 100.293 88.3576 101.506 90.3838 103.47C90.7116 103.789 91.1512 103.967 91.6087 103.967C91.9586 103.967 92.3006 103.863 92.5908 103.667C92.881 103.472 93.1063 103.194 93.2379 102.87C93.3695 102.546 93.4014 102.19 93.3295 101.848C93.2575 101.505 93.0851 101.192 92.8341 100.948C90.243 98.4302 86.8333 96.8609 83.2333 96.53C78.8377 96.1261 74.4324 95.8358 70.0218 95.6592V93.6591C77.6622 93.5057 85.298 93.173 92.9227 92.6611C97.131 92.3762 101.098 90.5918 104.102 87.6318C107.106 84.6712 108.953 80.7342 109.309 76.5315C109.834 70.2881 110.173 64.0304 110.324 57.7667C114.45 57.4273 117.972 54.5084 119 50.4973C120.334 45.2823 120.334 39.9931 118.998 34.7746ZM79.4615 3.59715C81.6903 3.59715 83.591 5.02505 84.2986 7.01316C81.1261 6.85691 77.9523 6.73158 74.7774 6.63719C75.5797 4.84106 77.3817 3.59715 79.4615 3.59715ZM60 3.59715C61.9876 3.59715 63.7381 4.75011 64.5868 6.43445C61.5291 6.40608 58.4712 6.40608 55.4135 6.43445C56.2619 4.75011 58.0124 3.59715 60 3.59715ZM40.5386 3.59715C42.6183 3.59715 44.4203 4.84106 45.2226 6.63743C42.0455 6.73282 38.8709 6.85635 35.7014 7.01339C36.4088 5.02482 38.3097 3.59715 40.5386 3.59715ZM4.40726 49.6249C3.2203 44.9889 3.2203 40.2861 4.40702 35.6484C5.07949 33.0275 7.433 31.1409 10.1618 31.0023C9.69317 38.7322 9.50944 46.4767 9.61096 54.2201C7.12033 53.8727 5.03355 52.0679 4.40726 49.6249ZM66.5043 96.4378C66.5043 100.024 63.5867 102.942 60 102.942C56.4134 102.942 53.4957 100.024 53.4957 96.4378V93.7177C55.6635 93.7463 57.8317 93.7649 60 93.7649C62.1684 93.7649 64.3365 93.7463 66.5043 93.7177V96.4378ZM105.804 76.2352C105.519 79.6016 104.04 82.7553 101.634 85.1269C99.2284 87.4962 96.0533 88.9247 92.6848 89.153C70.9964 90.6144 49.0036 90.6144 27.3149 89.153C23.9464 88.9246 20.7714 87.4962 18.3661 85.1269C15.96 82.7553 14.481 79.6017 14.1961 76.2352C12.73 58.8854 12.73 41.2911 14.1961 23.9411C14.481 20.5747 15.9601 17.4211 18.3661 15.0495C20.7714 12.6801 23.9464 11.2516 27.3149 11.0233C38.1593 10.2927 49.0793 9.92733 59.9998 9.92733C70.9203 9.92733 81.8405 10.2927 92.6846 11.0233C96.0531 11.2517 99.2281 12.6801 101.633 15.0495C104.04 17.421 105.519 20.5747 105.803 23.9411C107.27 41.2911 107.27 58.8854 105.804 76.2352ZM115.593 49.6244C114.966 52.0689 112.878 53.8742 110.389 54.2206C110.49 46.4747 110.307 38.7217 109.838 31.0026C112.568 31.1418 114.921 33.0282 115.593 35.6475C116.78 40.2861 116.78 44.9889 115.593 49.6244Z" fill="black"/>
<path d="M90.2077 15.8228C70.1631 14.4927 49.8372 14.4927 29.7926 15.8228C24.9426 16.1446 21.0322 19.8761 20.495 24.6947C19.248 35.8606 19.0169 47.1915 19.8087 58.3724C19.8774 59.3409 20.7188 60.072 21.6864 60.0017C21.9167 59.9854 22.1415 59.9239 22.348 59.8207C22.5546 59.7175 22.7387 59.5747 22.89 59.4003C23.0414 59.226 23.1568 59.0235 23.2299 58.8045C23.303 58.5855 23.3322 58.3543 23.3159 58.124C22.5391 47.1552 22.7655 36.0392 23.9893 25.0845C24.3376 21.9596 26.876 19.5398 30.0256 19.3309C49.9148 18.0111 70.0852 18.0111 89.9747 19.3309C93.1242 19.54 95.6626 21.9599 96.0109 25.0848C97.5085 38.5188 97.5085 52.0777 96.0109 65.5117C95.6626 68.6366 93.1242 71.0563 89.9749 71.2653C70.0855 72.5828 49.9155 72.5831 30.0256 71.2653C26.876 71.0563 24.3376 68.6364 23.9902 65.5202L23.9389 65.0563C23.9149 64.8267 23.8458 64.604 23.7357 64.4011C23.6256 64.1981 23.4766 64.0189 23.2971 63.8736C23.1177 63.7283 22.9114 63.6198 22.69 63.5543C22.4686 63.4887 22.2364 63.4675 22.0068 63.4918C21.7772 63.5159 21.5546 63.585 21.3517 63.6952C21.1489 63.8053 20.9697 63.9544 20.8244 64.1338C20.6791 64.3132 20.5706 64.5195 20.505 64.7408C20.4394 64.9622 20.4181 65.1943 20.4423 65.4238L20.495 65.9013C21.0322 70.7201 24.9426 74.4516 29.7928 74.7737C39.8481 75.4384 49.9226 75.7705 59.9999 75.7696C70.0927 75.7696 80.1854 75.4377 90.2077 74.7737C95.0577 74.4516 98.968 70.7204 99.5052 65.9018C101.031 52.2086 101.031 38.3883 99.5052 24.6952C98.968 19.8761 95.0577 16.1446 90.2077 15.8228Z" fill="black"/>
<path d="M48.5519 31.6175C48.5519 26.6374 44.5004 22.5859 39.5203 22.5859C34.5405 22.5859 30.489 26.6374 30.489 31.6175C30.489 36.5976 34.5405 40.649 39.5203 40.649C44.5004 40.649 48.5519 36.5976 48.5519 31.6175ZM34.0049 31.6175C34.0049 28.5763 36.4791 26.1018 39.5203 26.1018C42.5615 26.1018 45.036 28.576 45.036 31.6175C45.036 34.6589 42.5615 37.1332 39.5203 37.1332C36.4791 37.1332 34.0049 34.6589 34.0049 31.6175ZM80.4796 22.5862C75.4995 22.5862 71.4481 26.6376 71.4481 31.6177C71.4481 36.5978 75.4995 40.6492 80.4796 40.6492C85.4595 40.6492 89.5109 36.5978 89.5109 31.6177C89.5109 26.6376 85.4595 22.5862 80.4796 22.5862ZM80.4796 37.1332C77.4382 37.1332 74.9639 34.6589 74.9639 31.6175C74.9639 28.576 77.4384 26.1018 80.4796 26.1018C83.5208 26.1018 85.9951 28.576 85.9951 31.6175C85.9951 34.6589 83.5211 37.1332 80.4796 37.1332ZM70.2733 42.5246C70.2733 41.5538 69.4865 40.7667 68.5154 40.7667C67.5443 40.7667 66.7574 41.5538 66.7574 42.5246C66.7574 46.2507 63.7258 49.2821 60 49.2821C56.2741 49.2821 53.2425 46.2507 53.2425 42.5246C53.2425 41.5538 52.4556 40.7667 51.4846 40.7667C50.5135 40.7667 49.7266 41.5538 49.7266 42.5246C49.7266 48.1894 54.3352 52.7979 60 52.7979C65.6647 52.7979 70.2733 48.1894 70.2733 42.5246ZM91.2918 44.4098H84.107C83.136 44.4098 82.3491 45.1969 82.3491 46.1677C82.3491 47.1386 83.136 47.9257 84.107 47.9257H91.2918C92.2629 47.9257 93.0497 47.1386 93.0497 46.1677C93.0497 45.1969 92.2629 44.4098 91.2918 44.4098ZM91.2918 50.353H84.107C83.136 50.353 82.3491 51.1401 82.3491 52.1109C82.3491 53.0818 83.136 53.8689 84.107 53.8689H91.2918C92.2629 53.8689 93.0497 53.0818 93.0497 52.1109C93.0497 51.1401 92.2629 50.353 91.2918 50.353ZM26.9502 46.1677C26.9502 46.634 27.1354 47.0811 27.4651 47.4108C27.7948 47.7405 28.2419 47.9257 28.7081 47.9257H35.8929C36.864 47.9257 37.6508 47.1386 37.6508 46.1677C37.6508 45.1969 36.864 44.4098 35.8929 44.4098H28.7081C28.2419 44.4098 27.7948 44.595 27.4651 44.9247C27.1354 45.2544 26.9502 45.7015 26.9502 46.1677ZM28.7081 53.8689H35.8929C36.864 53.8689 37.6508 53.0818 37.6508 52.1109C37.6508 51.1401 36.864 50.353 35.8929 50.353H28.7081C28.2419 50.353 27.7948 50.5382 27.4651 50.8679C27.1354 51.1976 26.9502 51.6447 26.9502 52.1109C26.9502 52.5772 27.1354 53.0243 27.4651 53.354C27.7948 53.6837 28.2419 53.8689 28.7081 53.8689ZM37.9384 103.608C37.8163 103.31 37.6078 103.054 37.3396 102.874C37.0713 102.694 36.7556 102.599 36.4327 102.6H36.4315C36.1085 102.599 35.7926 102.695 35.5244 102.875C35.2561 103.055 35.0478 103.311 34.926 103.611L34.9131 103.643L31.2431 113.279C31.1103 113.628 31.1215 114.015 31.2741 114.355C31.4267 114.696 31.7083 114.961 32.0569 115.094C32.4054 115.227 32.7925 115.216 33.1328 115.063C33.4732 114.91 33.739 114.629 33.8717 114.28L34.4408 112.786H38.3962L38.9585 114.276C39.022 114.451 39.1196 114.612 39.2457 114.749C39.3718 114.886 39.5238 114.997 39.693 115.074C39.8622 115.152 40.0452 115.196 40.2313 115.202C40.4174 115.209 40.603 115.178 40.7772 115.112C40.9515 115.047 41.1109 114.947 41.2463 114.819C41.3817 114.691 41.4903 114.538 41.5659 114.368C41.6415 114.197 41.6826 114.014 41.6866 113.828C41.6907 113.641 41.6578 113.456 41.5898 113.283L37.953 103.646L37.9384 103.608ZM35.5122 109.974L36.4278 107.57L37.3349 109.974H35.5122ZM43.8692 104.006V113.78C43.8692 114.153 44.0174 114.511 44.2811 114.774C44.5449 115.038 44.9026 115.186 45.2756 115.186C45.6485 115.186 46.0062 115.038 46.27 114.774C46.5337 114.511 46.6819 114.153 46.6819 113.78V104.006C46.6819 103.633 46.5337 103.275 46.27 103.012C46.0062 102.748 45.6485 102.6 45.2756 102.6C44.9026 102.6 44.5449 102.748 44.2811 103.012C44.0174 103.275 43.8692 103.633 43.8692 104.006Z" fill="black"/>
</g>
<defs>
<clipPath id="clip0_879_77">
<rect width="120" height="120" fill="white"/>
</clipPath>
</defs>
</svg>
