<svg width="84" height="109" viewBox="0 0 84 109" fill="none" xmlns="http://www.w3.org/2000/svg">
<path d="M4.75116 2.39864C4.75116 3.69022 3.69022 4.75116 2.39864 4.75116C1.06094 4.75116 0 3.69022 0 2.39864C0 1.06094 1.06094 0 2.39864 0C3.69022 0 4.75116 1.06094 4.75116 2.39864Z" fill="white"/>
<path d="M4.75116 17.2971C4.75116 18.5887 3.69022 19.6496 2.39864 19.6496C1.06094 19.6496 0 18.5887 0 17.2971C0 15.9594 1.06094 14.8984 2.39864 14.8984C3.69022 14.8984 4.75116 15.9594 4.75116 17.2971Z" fill="white"/>
<path d="M4.75116 32.1523C4.75116 33.49 3.69022 34.551 2.39864 34.551C1.06094 34.551 0 33.49 0 32.1523C0 30.8607 1.06094 29.7998 2.39864 29.7998C3.69022 29.7998 4.75116 30.8607 4.75116 32.1523Z" fill="white"/>
<path d="M4.75116 47.0508C4.75116 48.3885 3.69022 49.4494 2.39864 49.4494C1.06094 49.4494 0 48.3885 0 47.0508C0 45.7592 1.06094 44.6982 2.39864 44.6982C3.69022 44.6982 4.75116 45.7592 4.75116 47.0508Z" fill="white"/>
<path d="M4.75116 61.9484C4.75116 63.24 3.69022 64.3471 2.39864 64.3471C1.06094 64.3471 0 63.24 0 61.9484C0 60.6569 1.06094 59.5498 2.39864 59.5498C3.69022 59.5498 4.75116 60.6569 4.75116 61.9484Z" fill="white"/>
<path d="M20.5734 2.39864C20.5734 3.69022 19.5125 4.75116 18.2209 4.75116C16.8832 4.75116 15.8223 3.69022 15.8223 2.39864C15.8223 1.06094 16.8832 0 18.2209 0C19.5125 0 20.5734 1.06094 20.5734 2.39864Z" fill="white"/>
<path d="M20.5734 17.2971C20.5734 18.5887 19.5125 19.6496 18.2209 19.6496C16.8832 19.6496 15.8223 18.5887 15.8223 17.2971C15.8223 15.9594 16.8832 14.8984 18.2209 14.8984C19.5125 14.8984 20.5734 15.9594 20.5734 17.2971Z" fill="white"/>
<path d="M20.5734 32.1523C20.5734 33.49 19.5125 34.551 18.2209 34.551C16.8832 34.551 15.8223 33.49 15.8223 32.1523C15.8223 30.8607 16.8832 29.7998 18.2209 29.7998C19.5125 29.7998 20.5734 30.8607 20.5734 32.1523Z" fill="white"/>
<path d="M20.5734 47.0508C20.5734 48.3885 19.5125 49.4494 18.2209 49.4494C16.8832 49.4494 15.8223 48.3885 15.8223 47.0508C15.8223 45.7592 16.8832 44.6982 18.2209 44.6982C19.5125 44.6982 20.5734 45.7592 20.5734 47.0508Z" fill="white"/>
<path d="M20.5734 61.9484C20.5734 63.24 19.5125 64.3471 18.2209 64.3471C16.8832 64.3471 15.8223 63.24 15.8223 61.9484C15.8223 60.6569 16.8832 59.5498 18.2209 59.5498C19.5125 59.5498 20.5734 60.6569 20.5734 61.9484Z" fill="white"/>
<path d="M36.4406 2.39864C36.4406 3.69022 35.3797 4.75116 34.042 4.75116C32.7504 4.75116 31.6895 3.69022 31.6895 2.39864C31.6895 1.06094 32.7504 0 34.042 0C35.3797 0 36.4406 1.06094 36.4406 2.39864Z" fill="white"/>
<path d="M36.4406 17.2971C36.4406 18.5887 35.3797 19.6496 34.042 19.6496C32.7504 19.6496 31.6895 18.5887 31.6895 17.2971C31.6895 15.9594 32.7504 14.8984 34.042 14.8984C35.3797 14.8984 36.4406 15.9594 36.4406 17.2971Z" fill="white"/>
<path d="M36.4406 32.1523C36.4406 33.49 35.3797 34.551 34.042 34.551C32.7504 34.551 31.6895 33.49 31.6895 32.1523C31.6895 30.8607 32.7504 29.7998 34.042 29.7998C35.3797 29.7998 36.4406 30.8607 36.4406 32.1523Z" fill="white"/>
<path d="M36.4406 47.0508C36.4406 48.3885 35.3797 49.4494 34.042 49.4494C32.7504 49.4494 31.6895 48.3885 31.6895 47.0508C31.6895 45.7592 32.7504 44.6982 34.042 44.6982C35.3797 44.6982 36.4406 45.7592 36.4406 47.0508Z" fill="white"/>
<path d="M36.4406 61.9484C36.4406 63.24 35.3797 64.3471 34.042 64.3471C32.7504 64.3471 31.6895 63.24 31.6895 61.9484C31.6895 60.6569 32.7504 59.5498 34.042 59.5498C35.3797 59.5498 36.4406 60.6569 36.4406 61.9484Z" fill="white"/>
<path d="M4.75116 76.8488C4.75116 78.1404 3.69022 79.2014 2.39864 79.2014C1.06094 79.2014 0 78.1404 0 76.8488C0 75.5111 1.06094 74.4502 2.39864 74.4502C3.69022 74.4502 4.75116 75.5111 4.75116 76.8488Z" fill="white"/>
<path d="M4.75116 91.7492C4.75116 93.0408 3.69022 94.1017 2.39864 94.1017C1.06094 94.1017 0 93.0408 0 91.7492C0 90.4115 1.06094 89.3506 2.39864 89.3506C3.69022 89.3506 4.75116 90.4115 4.75116 91.7492Z" fill="white"/>
<path d="M4.75116 106.603C4.75116 107.94 3.69022 109.001 2.39864 109.001C1.06094 109.001 0 107.94 0 106.603C0 105.311 1.06094 104.25 2.39864 104.25C3.69022 104.25 4.75116 105.311 4.75116 106.603Z" fill="white"/>
<path d="M20.5734 76.8488C20.5734 78.1404 19.5125 79.2014 18.2209 79.2014C16.8832 79.2014 15.8223 78.1404 15.8223 76.8488C15.8223 75.5111 16.8832 74.4502 18.2209 74.4502C19.5125 74.4502 20.5734 75.5111 20.5734 76.8488Z" fill="white"/>
<path d="M20.5734 91.7492C20.5734 93.0408 19.5125 94.1017 18.2209 94.1017C16.8832 94.1017 15.8223 93.0408 15.8223 91.7492C15.8223 90.4115 16.8832 89.3506 18.2209 89.3506C19.5125 89.3506 20.5734 90.4115 20.5734 91.7492Z" fill="white"/>
<path d="M20.5734 106.603C20.5734 107.94 19.5125 109.001 18.2209 109.001C16.8832 109.001 15.8223 107.94 15.8223 106.603C15.8223 105.311 16.8832 104.25 18.2209 104.25C19.5125 104.25 20.5734 105.311 20.5734 106.603Z" fill="white"/>
<path d="M36.4406 76.8488C36.4406 78.1404 35.3797 79.2014 34.042 79.2014C32.7504 79.2014 31.6895 78.1404 31.6895 76.8488C31.6895 75.5111 32.7504 74.4502 34.042 74.4502C35.3797 74.4502 36.4406 75.5111 36.4406 76.8488Z" fill="white"/>
<path d="M36.4406 91.7492C36.4406 93.0408 35.3797 94.1017 34.042 94.1017C32.7504 94.1017 31.6895 93.0408 31.6895 91.7492C31.6895 90.4115 32.7504 89.3506 34.042 89.3506C35.3797 89.3506 36.4406 90.4115 36.4406 91.7492Z" fill="white"/>
<path d="M36.4406 106.603C36.4406 107.94 35.3797 109.001 34.042 109.001C32.7504 109.001 31.6895 107.94 31.6895 106.603C31.6895 105.311 32.7504 104.25 34.042 104.25C35.3797 104.25 36.4406 105.311 36.4406 106.603Z" fill="white"/>
<path d="M52.2619 2.39864C52.2619 3.69022 51.201 4.75116 49.8633 4.75116C48.5717 4.75116 47.5107 3.69022 47.5107 2.39864C47.5107 1.06094 48.5717 0 49.8633 0C51.201 0 52.2619 1.06094 52.2619 2.39864Z" fill="white"/>
<path d="M52.2619 17.2971C52.2619 18.5887 51.201 19.6496 49.8633 19.6496C48.5717 19.6496 47.5107 18.5887 47.5107 17.2971C47.5107 15.9594 48.5717 14.8984 49.8633 14.8984C51.201 14.8984 52.2619 15.9594 52.2619 17.2971Z" fill="white"/>
<path d="M52.2619 32.1523C52.2619 33.49 51.201 34.551 49.8633 34.551C48.5717 34.551 47.5107 33.49 47.5107 32.1523C47.5107 30.8607 48.5717 29.7998 49.8633 29.7998C51.201 29.7998 52.2619 30.8607 52.2619 32.1523Z" fill="white"/>
<path d="M52.2619 47.0508C52.2619 48.3885 51.201 49.4494 49.8633 49.4494C48.5717 49.4494 47.5107 48.3885 47.5107 47.0508C47.5107 45.7592 48.5717 44.6982 49.8633 44.6982C51.201 44.6982 52.2619 45.7592 52.2619 47.0508Z" fill="white"/>
<path d="M52.2619 61.9484C52.2619 63.24 51.201 64.3471 49.8633 64.3471C48.5717 64.3471 47.5107 63.24 47.5107 61.9484C47.5107 60.6569 48.5717 59.5498 49.8633 59.5498C51.201 59.5498 52.2619 60.6569 52.2619 61.9484Z" fill="white"/>
<path d="M68.0842 2.39864C68.0842 3.69022 67.0232 4.75116 65.7316 4.75116C64.3939 4.75116 63.333 3.69022 63.333 2.39864C63.333 1.06094 64.3939 0 65.7316 0C67.0232 0 68.0842 1.06094 68.0842 2.39864Z" fill="white"/>
<path d="M68.0842 17.2971C68.0842 18.5887 67.0232 19.6496 65.7316 19.6496C64.3939 19.6496 63.333 18.5887 63.333 17.2971C63.333 15.9594 64.3939 14.8984 65.7316 14.8984C67.0232 14.8984 68.0842 15.9594 68.0842 17.2971Z" fill="white"/>
<path d="M68.0842 32.1523C68.0842 33.49 67.0232 34.551 65.7316 34.551C64.3939 34.551 63.333 33.49 63.333 32.1523C63.333 30.8607 64.3939 29.7998 65.7316 29.7998C67.0232 29.7998 68.0842 30.8607 68.0842 32.1523Z" fill="white"/>
<path d="M68.0842 47.0508C68.0842 48.3885 67.0232 49.4494 65.7316 49.4494C64.3939 49.4494 63.333 48.3885 63.333 47.0508C63.333 45.7592 64.3939 44.6982 65.7316 44.6982C67.0232 44.6982 68.0842 45.7592 68.0842 47.0508Z" fill="white"/>
<path d="M68.0842 61.9484C68.0842 63.24 67.0232 64.3471 65.7316 64.3471C64.3939 64.3471 63.333 63.24 63.333 61.9484C63.333 60.6569 64.3939 59.5498 65.7316 59.5498C67.0232 59.5498 68.0842 60.6569 68.0842 61.9484Z" fill="white"/>
<path d="M83.9064 2.39864C83.9064 3.69022 82.8455 4.75116 81.5539 4.75116C80.2162 4.75116 79.1553 3.69022 79.1553 2.39864C79.1553 1.06094 80.2162 0 81.5539 0C82.8455 0 83.9064 1.06094 83.9064 2.39864Z" fill="white"/>
<path d="M83.9064 17.2971C83.9064 18.5887 82.8455 19.6496 81.5539 19.6496C80.2162 19.6496 79.1553 18.5887 79.1553 17.2971C79.1553 15.9594 80.2162 14.8984 81.5539 14.8984C82.8455 14.8984 83.9064 15.9594 83.9064 17.2971Z" fill="white"/>
<path d="M83.9064 32.1523C83.9064 33.49 82.8455 34.551 81.5539 34.551C80.2162 34.551 79.1553 33.49 79.1553 32.1523C79.1553 30.8607 80.2162 29.7998 81.5539 29.7998C82.8455 29.7998 83.9064 30.8607 83.9064 32.1523Z" fill="white"/>
<path d="M83.9064 47.0508C83.9064 48.3885 82.8455 49.4494 81.5539 49.4494C80.2162 49.4494 79.1553 48.3885 79.1553 47.0508C79.1553 45.7592 80.2162 44.6982 81.5539 44.6982C82.8455 44.6982 83.9064 45.7592 83.9064 47.0508Z" fill="white"/>
<path d="M83.9064 61.9484C83.9064 63.24 82.8455 64.3471 81.5539 64.3471C80.2162 64.3471 79.1553 63.24 79.1553 61.9484C79.1553 60.6569 80.2162 59.5498 81.5539 59.5498C82.8455 59.5498 83.9064 60.6569 83.9064 61.9484Z" fill="white"/>
<path d="M52.2619 76.8488C52.2619 78.1404 51.201 79.2014 49.8633 79.2014C48.5717 79.2014 47.5107 78.1404 47.5107 76.8488C47.5107 75.5111 48.5717 74.4502 49.8633 74.4502C51.201 74.4502 52.2619 75.5111 52.2619 76.8488Z" fill="white"/>
<path d="M52.2619 91.7492C52.2619 93.0408 51.201 94.1017 49.8633 94.1017C48.5717 94.1017 47.5107 93.0408 47.5107 91.7492C47.5107 90.4115 48.5717 89.3506 49.8633 89.3506C51.201 89.3506 52.2619 90.4115 52.2619 91.7492Z" fill="white"/>
<path d="M52.2619 106.603C52.2619 107.94 51.201 109.001 49.8633 109.001C48.5717 109.001 47.5107 107.94 47.5107 106.603C47.5107 105.311 48.5717 104.25 49.8633 104.25C51.201 104.25 52.2619 105.311 52.2619 106.603Z" fill="white"/>
<path d="M68.0842 76.8488C68.0842 78.1404 67.0232 79.2014 65.7316 79.2014C64.3939 79.2014 63.333 78.1404 63.333 76.8488C63.333 75.5111 64.3939 74.4502 65.7316 74.4502C67.0232 74.4502 68.0842 75.5111 68.0842 76.8488Z" fill="white"/>
<path d="M68.0842 91.7492C68.0842 93.0408 67.0232 94.1017 65.7316 94.1017C64.3939 94.1017 63.333 93.0408 63.333 91.7492C63.333 90.4115 64.3939 89.3506 65.7316 89.3506C67.0232 89.3506 68.0842 90.4115 68.0842 91.7492Z" fill="white"/>
<path d="M68.0842 106.603C68.0842 107.94 67.0232 109.001 65.7316 109.001C64.3939 109.001 63.333 107.94 63.333 106.603C63.333 105.311 64.3939 104.25 65.7316 104.25C67.0232 104.25 68.0842 105.311 68.0842 106.603Z" fill="white"/>
<path d="M83.9064 76.8488C83.9064 78.1404 82.8455 79.2014 81.5539 79.2014C80.2162 79.2014 79.1553 78.1404 79.1553 76.8488C79.1553 75.5111 80.2162 74.4502 81.5539 74.4502C82.8455 74.4502 83.9064 75.5111 83.9064 76.8488Z" fill="white"/>
<path d="M83.9064 91.7492C83.9064 93.0408 82.8455 94.1017 81.5539 94.1017C80.2162 94.1017 79.1553 93.0408 79.1553 91.7492C79.1553 90.4115 80.2162 89.3506 81.5539 89.3506C82.8455 89.3506 83.9064 90.4115 83.9064 91.7492Z" fill="white"/>
<path d="M83.9064 106.603C83.9064 107.94 82.8455 109.001 81.5539 109.001C80.2162 109.001 79.1553 107.94 79.1553 106.603C79.1553 105.311 80.2162 104.25 81.5539 104.25C82.8455 104.25 83.9064 105.311 83.9064 106.603Z" fill="white"/>
</svg>
