<svg width="54" height="14" viewBox="0 0 54 14" fill="none" xmlns="http://www.w3.org/2000/svg">
<path d="M48.2638 7.90415C48.2798 8.13882 48.3545 8.34683 48.4878 8.52816C48.6211 8.7095 48.8051 8.8535 49.0398 8.96017C49.2798 9.0615 49.5625 9.11217 49.8878 9.11217C50.1972 9.11217 50.4745 9.08017 50.7198 9.01617C50.9705 8.95217 51.1865 8.87216 51.3678 8.77616C51.5545 8.68016 51.6985 8.58149 51.7998 8.48016L52.7439 9.98418C52.6105 10.1282 52.4212 10.2695 52.1758 10.4082C51.9358 10.5415 51.6185 10.6509 51.2238 10.7362C50.8292 10.8215 50.3305 10.8642 49.7278 10.8642C49.0025 10.8642 48.3571 10.7282 47.7918 10.4562C47.2265 10.1842 46.7811 9.78417 46.4558 9.25617C46.1304 8.72816 45.9678 8.08282 45.9678 7.32015C45.9678 6.68014 46.1064 6.10413 46.3838 5.59213C46.6664 5.07479 47.0745 4.66678 47.6078 4.36811C48.1411 4.06411 48.7838 3.91211 49.5358 3.91211C50.2505 3.91211 50.8692 4.04278 51.3918 4.30411C51.9198 4.56545 52.3252 4.95479 52.6079 5.47213C52.8959 5.98413 53.0399 6.62414 53.0399 7.39215C53.0399 7.43481 53.0372 7.52015 53.0319 7.64815C53.0319 7.77615 53.0265 7.86149 53.0159 7.90415H48.2638ZM50.7518 6.63214C50.7465 6.46147 50.7012 6.29347 50.6158 6.12813C50.5305 5.95747 50.4025 5.8188 50.2318 5.71213C50.0612 5.60013 49.8425 5.54413 49.5758 5.54413C49.3091 5.54413 49.0825 5.59746 48.8958 5.70413C48.7145 5.80546 48.5758 5.9388 48.4798 6.10413C48.3838 6.26947 48.3305 6.44547 48.3198 6.63214H50.7518Z" fill="#3064E9"/>
<path d="M43.3402 10.6722H40.9082V4.10411H43.3402V5.12012H43.3002C43.3429 4.99746 43.4469 4.84279 43.6122 4.65612C43.7776 4.46412 44.0096 4.29345 44.3082 4.14411C44.6069 3.98944 44.9722 3.91211 45.4043 3.91211C45.7083 3.91211 45.9883 3.96011 46.2443 4.05611C46.5003 4.14678 46.6869 4.23478 46.8043 4.32011L45.8603 6.29614C45.7856 6.20547 45.6523 6.11213 45.4603 6.01613C45.2736 5.9148 45.0389 5.86413 44.7562 5.86413C44.4309 5.86413 44.1616 5.9468 43.9482 6.11213C43.7402 6.27747 43.5856 6.47747 43.4842 6.71214C43.3882 6.94681 43.3402 7.16815 43.3402 7.37615V10.6722Z" fill="#3064E9"/>
<path d="M37.9698 10.6721V4.10405H40.4018V10.6721H37.9698ZM39.2178 2.75203C38.8338 2.75203 38.5085 2.6187 38.2418 2.35203C37.9751 2.08002 37.8418 1.75735 37.8418 1.38402C37.8418 1.01068 37.9751 0.688008 38.2418 0.416005C38.5138 0.138668 38.8391 0 39.2178 0C39.4685 0 39.6978 0.0640008 39.9058 0.192003C40.1138 0.314671 40.2818 0.480006 40.4098 0.688008C40.5378 0.89601 40.6018 1.12801 40.6018 1.38402C40.6018 1.75735 40.4658 2.08002 40.1938 2.35203C39.9218 2.6187 39.5965 2.75203 39.2178 2.75203Z" fill="#3064E9"/>
<path d="M34.6522 6.4234H31.0041V10.6714H28.6201V0.111328H31.0041V4.33538H34.6522V0.111328H37.0282V10.6714H34.6522V6.4234Z" fill="#3064E9"/>
<path d="M24.6662 8.56757L26.4423 4.10352H28.8263L24.3142 13.9996H21.8822L23.4022 10.6716L20.6582 4.10352H23.0822L24.6662 8.56757Z" fill="#05112E"/>
<path d="M18.3837 3.91211C18.8157 3.91211 19.2104 3.94944 19.5678 4.02411C19.9251 4.09344 20.2238 4.17345 20.4638 4.26411C20.7091 4.35478 20.8664 4.42945 20.9358 4.48812L20.1438 5.92013C20.0424 5.84546 19.8531 5.74946 19.5758 5.63213C19.3038 5.51479 18.9997 5.45613 18.6637 5.45613C18.4077 5.45613 18.1917 5.49613 18.0157 5.57613C17.8397 5.6508 17.7517 5.7708 17.7517 5.93613C17.7517 6.10147 17.8477 6.2348 18.0397 6.33614C18.2371 6.43214 18.5197 6.51747 18.8877 6.59214C19.2077 6.65614 19.5331 6.75747 19.8638 6.89614C20.1944 7.03481 20.4691 7.24015 20.6878 7.51215C20.9118 7.77882 21.0238 8.13616 21.0238 8.58416C21.0238 9.04283 20.9251 9.4215 20.7278 9.72017C20.5304 10.0188 20.2691 10.2508 19.9438 10.4162C19.6184 10.5815 19.2664 10.6962 18.8877 10.7602C18.5091 10.8295 18.1411 10.8642 17.7837 10.8642C17.2824 10.8642 16.8451 10.8189 16.4717 10.7282C16.1037 10.6375 15.805 10.5335 15.5757 10.4162C15.3464 10.2988 15.1864 10.2055 15.0957 10.1362L15.8797 8.53616C16.0184 8.6535 16.245 8.78683 16.5597 8.93616C16.8744 9.08017 17.2077 9.15217 17.5597 9.15217C17.9011 9.15217 18.1651 9.1015 18.3517 9.00017C18.5384 8.89883 18.6317 8.7655 18.6317 8.60016C18.6317 8.46683 18.5864 8.36016 18.4957 8.28016C18.4051 8.20016 18.2771 8.13082 18.1117 8.07216C17.9464 8.01349 17.7464 7.96015 17.5117 7.91215C17.2984 7.86949 17.0717 7.80282 16.8317 7.71215C16.5917 7.62148 16.3651 7.49882 16.1517 7.34415C15.9384 7.18415 15.765 6.98414 15.6317 6.74414C15.4984 6.50414 15.4317 6.21347 15.4317 5.87213C15.4317 5.43479 15.573 5.07212 15.8557 4.78412C16.1384 4.49612 16.5037 4.28011 16.9517 4.13611C17.3997 3.98678 17.8771 3.91211 18.3837 3.91211Z" fill="#05112E"/>
<path d="M12.4658 10.6722V9.60817C12.4178 9.71484 12.2952 9.86951 12.0978 10.0722C11.9058 10.2748 11.6498 10.4588 11.3298 10.6242C11.0098 10.7842 10.6365 10.8642 10.2098 10.8642C9.56979 10.8642 9.00979 10.7095 8.52978 10.4002C8.04978 10.0855 7.67644 9.66684 7.40977 9.14417C7.1431 8.61616 7.00977 8.03216 7.00977 7.39215C7.00977 6.75214 7.1431 6.1708 7.40977 5.64813C7.67644 5.12012 8.04978 4.69878 8.52978 4.38411C9.00979 4.06944 9.56979 3.91211 10.2098 3.91211C10.6205 3.91211 10.9805 3.97878 11.2898 4.11211C11.5992 4.24011 11.8498 4.39478 12.0418 4.57612C12.2338 4.75212 12.3672 4.91479 12.4418 5.06412V4.10411H14.8579V10.6722H12.4658ZM9.39379 7.39215C9.39379 7.69082 9.46313 7.96015 9.60179 8.20016C9.74046 8.43483 9.92446 8.61883 10.1538 8.75216C10.3885 8.8855 10.6471 8.95217 10.9298 8.95217C11.2231 8.95217 11.4818 8.8855 11.7058 8.75216C11.9298 8.61883 12.1058 8.43483 12.2338 8.20016C12.3672 7.96015 12.4338 7.69082 12.4338 7.39215C12.4338 7.09348 12.3672 6.82681 12.2338 6.59214C12.1058 6.35214 11.9298 6.16547 11.7058 6.03213C11.4818 5.89346 11.2231 5.82413 10.9298 5.82413C10.6471 5.82413 10.3885 5.89346 10.1538 6.03213C9.92446 6.16547 9.74046 6.35214 9.60179 6.59214C9.46313 6.82681 9.39379 7.09348 9.39379 7.39215Z" fill="#05112E"/>
<path d="M2.29603 7.90415C2.31203 8.13882 2.38669 8.34683 2.52003 8.52816C2.65336 8.7095 2.83736 8.8535 3.07203 8.96017C3.31204 9.0615 3.59471 9.11217 3.92004 9.11217C4.22938 9.11217 4.50672 9.08017 4.75205 9.01617C5.00272 8.95217 5.21873 8.87216 5.40006 8.77616C5.58673 8.68016 5.73073 8.58149 5.83207 8.48016L6.77608 9.98418C6.64274 10.1282 6.45341 10.2695 6.20807 10.4082C5.96807 10.5415 5.65073 10.6509 5.25606 10.7362C4.86139 10.8215 4.36272 10.8642 3.76004 10.8642C3.0347 10.8642 2.38936 10.7282 1.82402 10.4562C1.25868 10.1842 0.813343 9.78417 0.488005 9.25617C0.162668 8.72816 0 8.08282 0 7.32015C0 6.68014 0.138668 6.10413 0.416005 5.59213C0.698675 5.07479 1.10668 4.66678 1.64002 4.36811C2.17336 4.06411 2.81603 3.91211 3.56804 3.91211C4.28271 3.91211 4.90139 4.04278 5.42406 4.30411C5.95207 4.56545 6.3574 4.95479 6.64007 5.47213C6.92808 5.98413 7.07208 6.62414 7.07208 7.39215C7.07208 7.43481 7.06941 7.52015 7.06408 7.64815C7.06408 7.77615 7.05875 7.86149 7.04808 7.90415H2.29603ZM4.78405 6.63214C4.77872 6.46147 4.73339 6.29347 4.64805 6.12813C4.56272 5.95747 4.43472 5.8188 4.26405 5.71213C4.09338 5.60013 3.87471 5.54413 3.60804 5.54413C3.34137 5.54413 3.1147 5.59746 2.92803 5.70413C2.7467 5.80546 2.60803 5.9388 2.51203 6.10413C2.41603 6.26947 2.36269 6.44547 2.35203 6.63214H4.78405Z" fill="#05112E"/>
</svg>
