<svg width="105" height="105" viewBox="0 0 105 105" fill="none" xmlns="http://www.w3.org/2000/svg">
<mask id="mask0_879_451" style="mask-type:luminance" maskUnits="userSpaceOnUse" x="0" y="0" width="105" height="105">
<path d="M0.000442505 52.5C0.000442505 81.4947 23.5033 105 52.498 105C81.4927 105 104.998 81.4947 104.998 52.5C104.998 23.5053 81.4927 0 52.498 0C23.5033 0 0.000442505 23.5053 0.000442505 52.5Z" fill="white"/>
</mask>
<g mask="url(#mask0_879_451)">
<g opacity="0.5">
<path d="M105.751 84.6988L106.424 83.5452L-0.744057 20.3115L-1.44102 21.4652L105.751 84.6988Z" fill="white"/>
<path d="M108.755 79.6027L109.428 78.425L2.25984 15.1914L1.58691 16.3691L108.755 79.6027Z" fill="white"/>
<path d="M111.758 74.483L112.455 73.3293L5.26316 10.0957L4.59023 11.2493L111.758 74.483Z" fill="white"/>
<path d="M117.791 64.2945L118.464 63.1408L11.296 -0.0927734L10.599 1.06086L117.791 64.2945Z" fill="white"/>
<path d="M114.763 69.3892L115.46 68.2356L8.26804 5.00195L7.59511 6.15559L114.763 69.3892Z" fill="white"/>
<path d="M120.796 59.1984L121.469 58.0207L14.3009 -5.21289L13.6039 -4.03523L120.796 59.1984Z" fill="white"/>
<path d="M123.799 54.0796L124.496 52.926L17.3042 -10.3076L16.6312 -9.15399L123.799 54.0796Z" fill="white"/>
<path d="M126.805 48.9839L127.502 47.8303L20.31 -15.4033L19.6371 -14.2497L126.805 48.9839Z" fill="white"/>
<path d="M129.832 43.8892L130.505 42.7356L23.337 -20.498L22.64 -19.3444L129.832 43.8892Z" fill="white"/>
<path d="M78.6639 130.604L79.3369 129.45L-27.831 66.2168L-28.528 67.3704L78.6639 130.604Z" fill="white"/>
<path d="M81.6679 125.507L82.3408 124.354L-24.8271 61.1201L-25.5241 62.2737L81.6679 125.507Z" fill="white"/>
<path d="M87.6761 115.317L88.373 114.139L-18.8189 50.9053L-19.4918 52.0589L87.6761 115.317Z" fill="white"/>
<path d="M84.6727 120.414L85.3457 119.26L-21.8222 56.0264L-22.4952 57.18L84.6727 120.414Z" fill="white"/>
<path d="M90.704 110.2L91.377 109.046L-15.7909 45.8125L-16.4879 46.9661L90.704 110.2Z" fill="white"/>
<path d="M93.7089 105.104L94.3818 103.95L-12.7861 40.7168L-13.4831 41.8704L93.7089 105.104Z" fill="white"/>
<path d="M96.7128 100.008L97.3857 98.8543L-9.78215 35.5967L-10.4551 36.7743L96.7128 100.008Z" fill="white"/>
<path d="M99.718 94.8882L100.415 93.7346L-6.77688 30.501L-7.44981 31.6546L99.718 94.8882Z" fill="white"/>
<path d="M102.722 89.7945L103.419 88.6409L-3.77297 25.4072L-4.44591 26.5609L102.722 89.7945Z" fill="white"/>
</g>
</g>
</svg>
