<svg width="60" height="60" viewBox="0 0 60 60" fill="none" xmlns="http://www.w3.org/2000/svg">
<rect width="60" height="60" fill="white"/>
<path d="M3.31713 46.127H5.44712L8.80434 53.6235H6.44808L5.88761 52.294H2.84127L2.30282 53.6235H0L3.31713 46.127ZM4.37209 48.617L3.50855 50.6689H5.24642L4.37209 48.617Z" fill="#05112E"/>
<path d="M9.61914 46.127H16.1409V48.0636H9.61914V46.127ZM9.61914 48.9069H16.1409V50.8435H9.61914V48.9069ZM9.61914 51.6868H16.1409V53.6235H9.61914V51.6868Z" fill="#05112E"/>
<path d="M24.3949 52.1203L25.1092 52.7436L24.0635 53.9428L23.2565 53.2396C22.5934 53.6752 21.792 53.9299 20.9288 53.9299C18.6452 53.9299 16.7939 52.1475 16.7939 49.9488C16.7939 47.7502 18.6452 45.9678 20.9288 45.9678C23.2124 45.9678 25.0636 47.7502 25.0636 49.9488C25.0636 50.7499 24.8178 51.4958 24.3949 52.1203ZM22.7126 50.6522C22.812 50.416 22.867 50.1567 22.867 49.8846C22.867 48.7853 21.9703 47.8941 20.8642 47.8941C19.758 47.8941 18.8614 48.7853 18.8614 49.8846C18.8614 50.984 19.758 51.8751 20.8642 51.8751C21.1059 51.8751 21.3376 51.8326 21.5521 51.7546L20.6126 50.936L21.6725 49.7446L22.7126 50.6522Z" fill="#05112E"/>
<path d="M28.2919 46.4463V50.8137C28.2919 51.5705 28.9324 52.1887 29.7338 52.2054C30.5128 52.2216 31.1582 51.6386 31.1754 50.9032C31.1756 50.8934 31.1757 50.8836 31.1757 50.8738V46.4463H33.4239C33.4197 48.6548 33.4197 50.1574 33.4239 50.9542C33.4239 53.2537 31.5321 54.1551 29.5601 54.0999C27.5881 54.0447 26.0869 52.9683 26.0869 50.9542C26.0869 50.0828 26.0869 48.5802 26.0869 46.4463H28.2919Z" fill="#05112E"/>
<path d="M37.2302 46.127H39.3602L42.7174 53.6235H40.3612L39.8007 52.294H36.7544L36.2159 53.6235H33.9131L37.2302 46.127ZM38.2852 48.617L37.4216 50.6689H39.1595L38.2852 48.617Z" fill="#05112E"/>
<path d="M50.2178 46.4463V53.9428H52.3373V46.4463H50.2178Z" fill="#05112E"/>
<path d="M45.3944 46.4463V52.1254H49.2387V53.9428H43.2061V46.4463H45.3944Z" fill="#05112E"/>
<path d="M54.3653 51.4047L53.1523 52.8306C55.1151 54.6539 60.0469 54.7539 59.9997 51.5515C60.029 50.139 58.7778 49.6067 57.6102 49.2938C57.1277 49.1645 56.392 49.0522 55.9948 48.8345C55.7872 48.7206 55.7262 48.5929 55.7262 48.387C55.7262 47.4398 58.0419 48.0912 58.6888 48.6698L59.7913 47.1685C58.8064 46.4107 57.678 46.0664 56.4061 46.1356C53.9734 46.1372 53.5128 47.8715 53.5128 48.6027C53.5105 49.0607 53.5989 49.6808 54.2053 50.1456C54.5711 50.4303 55.2388 50.7099 55.9358 50.9082C56.4119 51.0436 56.8972 51.1269 57.2473 51.2547C57.6442 51.3996 57.7961 51.6552 57.8007 51.7456C57.8322 52.3683 56.8819 52.4934 55.5834 52.0819C55.3056 51.9939 54.8996 51.7682 54.3653 51.4047Z" fill="#05112E"/>
<path d="M37.2259 16.7579L22.3564 8.35483L29.7901 4.1543L44.6616 12.5574L37.2259 16.7579Z" fill="#00CBFF"/>
<path d="M22.3564 25.1622L44.6616 12.5566V20.9597L29.7901 29.3628L22.3564 25.1622Z" fill="#3345AF"/>
<path d="M22.3564 33.5665L44.6616 20.9609V29.364L29.7901 37.7691L22.3564 33.5665Z" fill="#486BFF"/>
<path d="M14.9209 12.556L22.3566 8.35352L29.7903 12.556L22.3566 16.7566L14.9209 12.556Z" fill="#0090E8"/>
<path d="M14.9209 20.9597V12.5566L22.3566 16.7572L29.7903 20.9597L22.3566 25.1622L14.9209 20.9597Z" fill="#00CBFF"/>
<path d="M14.9209 29.364V20.9609L22.3566 25.1635L29.7903 29.364L22.3566 33.5665L14.9209 29.364Z" fill="#0090E8"/>
</svg>
