<svg width="74" height="29" viewBox="0 0 74 29" fill="none" xmlns="http://www.w3.org/2000/svg">
<path fill-rule="evenodd" clip-rule="evenodd" d="M73.999 17.1832L57.8755 28.3525L57.8755 6.01376L73.999 17.1832Z" fill="#03CAFF"/>
<path fill-rule="evenodd" clip-rule="evenodd" d="M39.2832 17.1832L58.0629 28.3525L58.0629 6.01377L39.2832 17.1832Z" fill="#486BFF"/>
<path fill-rule="evenodd" clip-rule="evenodd" d="M49.5342 11.1434L44.6412 14.0361L44.7436 7.92678L49.5342 11.1434Z" fill="#03CAFF"/>
<path fill-rule="evenodd" clip-rule="evenodd" d="M39.377 11.0973L44.7825 14.2686L44.7825 7.92602L39.377 11.0973Z" fill="#486BFF"/>
<path d="M-7.70884e-07 17.6626L15.4064 8.84473L15.4064 17.6626L-7.70884e-07 17.6626Z" fill="#03CAFF"/>
<path d="M30.7217 17.6626L15.3153 8.84473L15.3153 17.6626L30.7217 17.6626Z" fill="#486BFF"/>
<path d="M22.957 13.2467L32.961 7.21777L32.961 17.7308L30.7914 17.7308L22.957 13.2467Z" fill="#03CAFF"/>
<path d="M43.0771 13.1057L32.9609 7.21777L32.956 17.7458L34.5581 17.7458L43.0771 13.1057Z" fill="#3245AE"/>
<path d="M42.9726 13.0527L51.1865 17.7422L34.5127 17.7422L42.9726 13.0527Z" fill="#03CAFF"/>
<path d="M18.4434 4.70596L23.2428 1.96484L23.2428 7.44707L18.4434 4.70596Z" fill="#03CAFF"/>
<path d="M28.5625 2.74111L23.7631 -4.1958e-07L23.7631 5.48223L28.5625 2.74111Z" fill="#3245AE"/>
</svg>
